<?xml version="1.0" encoding="UTF-8" standalone="no"?>
<!DOCTYPE svg PUBLIC "-//W3C//DTD SVG 1.1//EN"
 "http://www.w3.org/Graphics/SVG/1.1/DTD/svg11.dtd">
<!-- Generated by graphviz version 2.40.1 (20161225.0304)
 -->
<!-- Title: %3 Pages: 1 -->
<svg width="1259pt" height="188pt"
 viewBox="0.00 0.00 1258.88 188.00" xmlns="http://www.w3.org/2000/svg" xmlns:xlink="http://www.w3.org/1999/xlink">
<g id="graph0" class="graph" transform="scale(1 1) rotate(0) translate(4 184)">
<title>%3</title>
<polygon fill="#ffffff" stroke="transparent" points="-4,4 -4,-184 1254.8835,-184 1254.8835,4 -4,4"/>
<!-- Drawable -->
<g id="node1" class="node">
<title>Drawable</title>
<ellipse fill="none" stroke="#000000" cx="631.0421" cy="-162" rx="55.4913" ry="18"/>
<text text-anchor="middle" x="631.0421" y="-158.3" font-family="Times,serif" font-size="14.00" fill="#000000">Drawable</text>
</g>
<!-- SlideElement -->
<g id="node2" class="node">
<title>SlideElement</title>
<ellipse fill="none" stroke="#000000" cx="568.0421" cy="-90" rx="73.387" ry="18"/>
<text text-anchor="middle" x="568.0421" y="-86.3" font-family="Times,serif" font-size="14.00" fill="#000000">SlideElement</text>
</g>
<!-- Drawable&#45;&gt;SlideElement -->
<g id="edge1" class="edge">
<title>Drawable&#45;&gt;SlideElement</title>
<path fill="none" stroke="#000000" d="M609.0349,-136.8489C600.6429,-127.258 591.2594,-116.534 583.5899,-107.7689"/>
<polygon fill="#000000" stroke="#000000" points="606.5725,-139.3498 615.7916,-144.5708 611.8405,-134.7402 606.5725,-139.3498"/>
</g>
<!-- Slide -->
<g id="node3" class="node">
<title>Slide</title>
<ellipse fill="none" stroke="#000000" cx="694.0421" cy="-90" rx="34.394" ry="18"/>
<text text-anchor="middle" x="694.0421" y="-86.3" font-family="Times,serif" font-size="14.00" fill="#000000">Slide</text>
</g>
<!-- Drawable&#45;&gt;Slide -->
<g id="edge2" class="edge">
<title>Drawable&#45;&gt;Slide</title>
<path fill="none" stroke="#000000" d="M653.0005,-136.9047C661.7254,-126.9334 671.5287,-115.7295 679.3658,-106.7729"/>
<polygon fill="#000000" stroke="#000000" points="650.2437,-134.7402 646.2926,-144.5708 655.5117,-139.3498 650.2437,-134.7402"/>
</g>
<!-- Array1DElement -->
<g id="node4" class="node">
<title>Array1DElement</title>
<ellipse fill="none" stroke="#000000" cx="89.0421" cy="-18" rx="89.0842" ry="18"/>
<text text-anchor="middle" x="89.0421" y="-14.3" font-family="Times,serif" font-size="14.00" fill="#000000">Array1DElement</text>
</g>
<!-- SlideElement&#45;&gt;Array1DElement -->
<g id="edge3" class="edge">
<title>SlideElement&#45;&gt;Array1DElement</title>
<path fill="none" stroke="#000000" d="M492.7821,-80.2562C415.8287,-70.0765 292.9044,-53.2167 187.0421,-36 176.3707,-34.2645 165.0688,-32.3035 154.0801,-30.3306"/>
<polygon fill="#000000" stroke="#000000" points="492.4917,-83.7481 502.8636,-81.5863 493.4074,-76.8082 492.4917,-83.7481"/>
</g>
<!-- Array2DElement -->
<g id="node5" class="node">
<title>Array2DElement</title>
<ellipse fill="none" stroke="#000000" cx="285.0421" cy="-18" rx="89.0842" ry="18"/>
<text text-anchor="middle" x="285.0421" y="-14.3" font-family="Times,serif" font-size="14.00" fill="#000000">Array2DElement</text>
</g>
<!-- SlideElement&#45;&gt;Array2DElement -->
<g id="edge4" class="edge">
<title>SlideElement&#45;&gt;Array2DElement</title>
<path fill="none" stroke="#000000" d="M506.8793,-74.4391C457.5045,-61.8773 388.6127,-44.3501 340.7532,-32.1739"/>
<polygon fill="#000000" stroke="#000000" points="506.2387,-77.8876 516.7929,-76.9613 507.9647,-71.1037 506.2387,-77.8876"/>
</g>
<!-- LatexElement -->
<g id="node6" class="node">
<title>LatexElement</title>
<ellipse fill="none" stroke="#000000" cx="468.0421" cy="-18" rx="76.0865" ry="18"/>
<text text-anchor="middle" x="468.0421" y="-14.3" font-family="Times,serif" font-size="14.00" fill="#000000">LatexElement</text>
</g>
<!-- SlideElement&#45;&gt;LatexElement -->
<g id="edge5" class="edge">
<title>SlideElement&#45;&gt;LatexElement</title>
<path fill="none" stroke="#000000" d="M536.2009,-67.0743C521.8444,-56.7376 505.1765,-44.7368 491.9171,-35.19"/>
<polygon fill="#000000" stroke="#000000" points="534.1831,-69.9343 544.3435,-72.937 538.2732,-64.2535 534.1831,-69.9343"/>
</g>
<!-- SourceCodeElement -->
<g id="node7" class="node">
<title>SourceCodeElement</title>
<ellipse fill="none" stroke="#000000" cx="669.0421" cy="-18" rx="106.6812" ry="18"/>
<text text-anchor="middle" x="669.0421" y="-14.3" font-family="Times,serif" font-size="14.00" fill="#000000">SourceCodeElement</text>
</g>
<!-- SlideElement&#45;&gt;SourceCodeElement -->
<g id="edge6" class="edge">
<title>SlideElement&#45;&gt;SourceCodeElement</title>
<path fill="none" stroke="#000000" d="M600.478,-66.8774C614.6615,-56.7663 631.0348,-45.0943 644.2236,-35.6924"/>
<polygon fill="#000000" stroke="#000000" points="598.0888,-64.2822 591.9777,-72.937 602.1522,-69.9822 598.0888,-64.2822"/>
</g>
<!-- VariableElement -->
<g id="node8" class="node">
<title>VariableElement</title>
<ellipse fill="none" stroke="#000000" cx="881.0421" cy="-18" rx="87.9851" ry="18"/>
<text text-anchor="middle" x="881.0421" y="-14.3" font-family="Times,serif" font-size="14.00" fill="#000000">VariableElement</text>
</g>
<!-- SlideElement&#45;&gt;VariableElement -->
<g id="edge7" class="edge">
<title>SlideElement&#45;&gt;VariableElement</title>
<path fill="none" stroke="#000000" d="M631.6433,-75.3697C687.571,-62.5045 768.3067,-43.9327 822.628,-31.4371"/>
<polygon fill="#000000" stroke="#000000" points="630.8096,-71.97 621.8487,-77.6228 632.3789,-78.7918 630.8096,-71.97"/>
</g>
<!-- BlockElement -->
<g id="node9" class="node">
<title>BlockElement</title>
<ellipse fill="none" stroke="#000000" cx="1063.0421" cy="-18" rx="76.0865" ry="18"/>
<text text-anchor="middle" x="1063.0421" y="-14.3" font-family="Times,serif" font-size="14.00" fill="#000000">BlockElement</text>
</g>
<!-- SlideElement&#45;&gt;BlockElement -->
<g id="edge8" class="edge">
<title>SlideElement&#45;&gt;BlockElement</title>
<path fill="none" stroke="#000000" d="M631.6664,-75.4992C638.1929,-74.2227 644.739,-73.0276 651.0421,-72 795.3484,-48.4742 833.6788,-59.1737 978.0421,-36 987.7229,-34.446 997.9675,-32.5207 1007.8654,-30.5129"/>
<polygon fill="#000000" stroke="#000000" points="630.5734,-72.1492 621.4643,-77.5599 631.9594,-79.0107 630.5734,-72.1492"/>
</g>
<!-- SlideBuilder -->
<g id="node10" class="node">
<title>SlideBuilder</title>
<ellipse fill="none" stroke="#000000" cx="839.0421" cy="-162" rx="68.4888" ry="18"/>
<text text-anchor="middle" x="839.0421" y="-158.3" font-family="Times,serif" font-size="14.00" fill="#000000">SlideBuilder</text>
</g>
<!-- Presentation -->
<g id="node11" class="node">
<title>Presentation</title>
<ellipse fill="none" stroke="#000000" cx="1029.0421" cy="-162" rx="70.3881" ry="18"/>
<text text-anchor="middle" x="1029.0421" y="-158.3" font-family="Times,serif" font-size="14.00" fill="#000000">Presentation</text>
</g>
<!-- HTMLPresentation -->
<g id="node12" class="node">
<title>HTMLPresentation</title>
<ellipse fill="none" stroke="#000000" cx="938.0421" cy="-90" rx="100.9827" ry="18"/>
<text text-anchor="middle" x="938.0421" y="-86.3" font-family="Times,serif" font-size="14.00" fill="#000000">HTMLPresentation</text>
</g>
<!-- Presentation&#45;&gt;HTMLPresentation -->
<g id="edge9" class="edge">
<title>Presentation&#45;&gt;HTMLPresentation</title>
<path fill="none" stroke="#000000" d="M999.0609,-138.2786C986.4937,-128.3353 972.132,-116.9723 960.5,-107.7689"/>
<polygon fill="#000000" stroke="#000000" points="996.9996,-141.1107 1007.0135,-144.5708 1001.343,-135.6212 996.9996,-141.1107"/>
</g>
<!-- LatexPresentation -->
<g id="node13" class="node">
<title>LatexPresentation</title>
<ellipse fill="none" stroke="#000000" cx="1154.0421" cy="-90" rx="96.6831" ry="18"/>
<text text-anchor="middle" x="1154.0421" y="-86.3" font-family="Times,serif" font-size="14.00" fill="#000000">LatexPresentation</text>
</g>
<!-- Presentation&#45;&gt;LatexPresentation -->
<g id="edge10" class="edge">
<title>Presentation&#45;&gt;LatexPresentation</title>
<path fill="none" stroke="#000000" d="M1066.4647,-140.4446C1084.924,-129.812 1106.8821,-117.1642 1124.1933,-107.1929"/>
<polygon fill="#000000" stroke="#000000" points="1064.638,-137.4576 1057.7196,-145.4817 1068.1319,-143.5233 1064.638,-137.4576"/>
</g>
</g>
</svg>
