<?xml version="1.0" encoding="UTF-8" standalone="no"?>
<!DOCTYPE svg PUBLIC "-//W3C//DTD SVG 1.1//EN"
 "http://www.w3.org/Graphics/SVG/1.1/DTD/svg11.dtd">
<!-- Generated by graphviz version 2.40.1 (20161225.0304)
 -->
<!-- Title: %3 Pages: 1 -->
<svg width="1068pt" height="188pt"
 viewBox="0.00 0.00 1067.88 188.00" xmlns="http://www.w3.org/2000/svg" xmlns:xlink="http://www.w3.org/1999/xlink">
<g id="graph0" class="graph" transform="scale(1 1) rotate(0) translate(4 184)">
<title>%3</title>
<polygon fill="#ffffff" stroke="transparent" points="-4,4 -4,-184 1063.8835,-184 1063.8835,4 -4,4"/>
<!-- SlideElement -->
<g id="node1" class="node">
<title>SlideElement</title>
<ellipse fill="none" stroke="#000000" cx="468.0421" cy="-90" rx="73.387" ry="18"/>
<text text-anchor="middle" x="468.0421" y="-86.3" font-family="Times,serif" font-size="14.00" fill="#000000">SlideElement</text>
</g>
<!-- Array1DElement -->
<g id="node2" class="node">
<title>Array1DElement</title>
<ellipse fill="none" stroke="#000000" cx="89.0421" cy="-18" rx="89.0842" ry="18"/>
<text text-anchor="middle" x="89.0421" y="-14.3" font-family="Times,serif" font-size="14.00" fill="#000000">Array1DElement</text>
</g>
<!-- SlideElement&#45;&gt;Array1DElement -->
<g id="edge1" class="edge">
<title>SlideElement&#45;&gt;Array1DElement</title>
<path fill="none" stroke="#000000" d="M399.654,-77.0081C329.9648,-63.769 222.6618,-43.3842 154.1735,-30.3732"/>
<polygon fill="#000000" stroke="#000000" points="399.1764,-80.4799 409.6539,-78.9078 400.4829,-73.6029 399.1764,-80.4799"/>
</g>
<!-- Array2DElement -->
<g id="node3" class="node">
<title>Array2DElement</title>
<ellipse fill="none" stroke="#000000" cx="285.0421" cy="-18" rx="89.0842" ry="18"/>
<text text-anchor="middle" x="285.0421" y="-14.3" font-family="Times,serif" font-size="14.00" fill="#000000">Array2DElement</text>
</g>
<!-- SlideElement&#45;&gt;Array2DElement -->
<g id="edge2" class="edge">
<title>SlideElement&#45;&gt;Array2DElement</title>
<path fill="none" stroke="#000000" d="M419.2032,-70.7847C390.0398,-59.3106 353.427,-44.9055 325.82,-34.0438"/>
<polygon fill="#000000" stroke="#000000" points="418.1969,-74.1499 428.784,-74.5542 420.7598,-67.6359 418.1969,-74.1499"/>
</g>
<!-- LatexElement -->
<g id="node7" class="node">
<title>LatexElement</title>
<ellipse fill="none" stroke="#000000" cx="468.0421" cy="-18" rx="76.0865" ry="18"/>
<text text-anchor="middle" x="468.0421" y="-14.3" font-family="Times,serif" font-size="14.00" fill="#000000">LatexElement</text>
</g>
<!-- SlideElement&#45;&gt;LatexElement -->
<g id="edge4" class="edge">
<title>SlideElement&#45;&gt;LatexElement</title>
<path fill="none" stroke="#000000" d="M468.0421,-61.5726C468.0421,-53.1084 468.0421,-44.0593 468.0421,-36.4133"/>
<polygon fill="#000000" stroke="#000000" points="464.5422,-61.8313 468.0421,-71.8314 471.5422,-61.8314 464.5422,-61.8313"/>
</g>
<!-- SourceCodeElement -->
<g id="node10" class="node">
<title>SourceCodeElement</title>
<ellipse fill="none" stroke="#000000" cx="669.0421" cy="-18" rx="106.6812" ry="18"/>
<text text-anchor="middle" x="669.0421" y="-14.3" font-family="Times,serif" font-size="14.00" fill="#000000">SourceCodeElement</text>
</g>
<!-- SlideElement&#45;&gt;SourceCodeElement -->
<g id="edge8" class="edge">
<title>SlideElement&#45;&gt;SourceCodeElement</title>
<path fill="none" stroke="#000000" d="M519.3298,-71.6283C551.3772,-60.1486 592.2889,-45.4937 623.2435,-34.4055"/>
<polygon fill="#000000" stroke="#000000" points="517.9234,-68.4142 509.6894,-75.0816 520.284,-75.0042 517.9234,-68.4142"/>
</g>
<!-- VariableElement -->
<g id="node11" class="node">
<title>VariableElement</title>
<ellipse fill="none" stroke="#000000" cx="881.0421" cy="-18" rx="87.9851" ry="18"/>
<text text-anchor="middle" x="881.0421" y="-14.3" font-family="Times,serif" font-size="14.00" fill="#000000">VariableElement</text>
</g>
<!-- SlideElement&#45;&gt;VariableElement -->
<g id="edge9" class="edge">
<title>SlideElement&#45;&gt;VariableElement</title>
<path fill="none" stroke="#000000" d="M532.3076,-75.6584C538.6276,-74.3697 544.9529,-73.1276 551.0421,-72 654.5067,-52.8405 681.3176,-53.6981 785.0421,-36 795.3221,-34.246 806.2034,-32.2958 816.8036,-30.3451"/>
<polygon fill="#000000" stroke="#000000" points="531.4951,-72.2524 522.4153,-77.712 532.918,-79.1062 531.4951,-72.2524"/>
</g>
<!-- Drawable -->
<g id="node4" class="node">
<title>Drawable</title>
<ellipse fill="none" stroke="#000000" cx="531.0421" cy="-162" rx="55.4913" ry="18"/>
<text text-anchor="middle" x="531.0421" y="-158.3" font-family="Times,serif" font-size="14.00" fill="#000000">Drawable</text>
</g>
<!-- Drawable&#45;&gt;SlideElement -->
<g id="edge7" class="edge">
<title>Drawable&#45;&gt;SlideElement</title>
<path fill="none" stroke="#000000" d="M509.0349,-136.8489C500.6429,-127.258 491.2594,-116.534 483.5899,-107.7689"/>
<polygon fill="#000000" stroke="#000000" points="506.5725,-139.3498 515.7916,-144.5708 511.8405,-134.7402 506.5725,-139.3498"/>
</g>
<!-- Slide -->
<g id="node9" class="node">
<title>Slide</title>
<ellipse fill="none" stroke="#000000" cx="594.0421" cy="-90" rx="34.394" ry="18"/>
<text text-anchor="middle" x="594.0421" y="-86.3" font-family="Times,serif" font-size="14.00" fill="#000000">Slide</text>
</g>
<!-- Drawable&#45;&gt;Slide -->
<g id="edge6" class="edge">
<title>Drawable&#45;&gt;Slide</title>
<path fill="none" stroke="#000000" d="M553.0005,-136.9047C561.7254,-126.9334 571.5287,-115.7295 579.3658,-106.7729"/>
<polygon fill="#000000" stroke="#000000" points="550.2437,-134.7402 546.2926,-144.5708 555.5117,-139.3498 550.2437,-134.7402"/>
</g>
<!-- Presentation -->
<g id="node5" class="node">
<title>Presentation</title>
<ellipse fill="none" stroke="#000000" cx="855.0421" cy="-162" rx="70.3881" ry="18"/>
<text text-anchor="middle" x="855.0421" y="-158.3" font-family="Times,serif" font-size="14.00" fill="#000000">Presentation</text>
</g>
<!-- HTMLPresentation -->
<g id="node6" class="node">
<title>HTMLPresentation</title>
<ellipse fill="none" stroke="#000000" cx="747.0421" cy="-90" rx="100.9827" ry="18"/>
<text text-anchor="middle" x="747.0421" y="-86.3" font-family="Times,serif" font-size="14.00" fill="#000000">HTMLPresentation</text>
</g>
<!-- Presentation&#45;&gt;HTMLPresentation -->
<g id="edge3" class="edge">
<title>Presentation&#45;&gt;HTMLPresentation</title>
<path fill="none" stroke="#000000" d="M820.991,-139.2993C805.5916,-129.033 787.6737,-117.0877 773.3324,-107.5269"/>
<polygon fill="#000000" stroke="#000000" points="819.4589,-142.4843 829.7209,-145.1192 823.3418,-136.66 819.4589,-142.4843"/>
</g>
<!-- LatexPresentation -->
<g id="node8" class="node">
<title>LatexPresentation</title>
<ellipse fill="none" stroke="#000000" cx="963.0421" cy="-90" rx="96.6831" ry="18"/>
<text text-anchor="middle" x="963.0421" y="-86.3" font-family="Times,serif" font-size="14.00" fill="#000000">LatexPresentation</text>
</g>
<!-- Presentation&#45;&gt;LatexPresentation -->
<g id="edge5" class="edge">
<title>Presentation&#45;&gt;LatexPresentation</title>
<path fill="none" stroke="#000000" d="M889.0932,-139.2993C904.4926,-129.033 922.4105,-117.0877 936.7518,-107.5269"/>
<polygon fill="#000000" stroke="#000000" points="886.7424,-136.66 880.3633,-145.1192 890.6253,-142.4843 886.7424,-136.66"/>
</g>
</g>
</svg>
