<?xml version="1.0" encoding="UTF-8" standalone="no"?>
<!DOCTYPE svg PUBLIC "-//W3C//DTD SVG 1.1//EN"
 "http://www.w3.org/Graphics/SVG/1.1/DTD/svg11.dtd">
<!-- Generated by graphviz version 2.40.1 (20161225.0304)
 -->
<!-- Title: %3 Pages: 1 -->
<svg width="948pt" height="191pt"
 viewBox="0.00 0.00 948.00 191.00" xmlns="http://www.w3.org/2000/svg" xmlns:xlink="http://www.w3.org/1999/xlink">
<g id="graph0" class="graph" transform="scale(1 1) rotate(0) translate(4 187)">
<title>%3</title>
<polygon fill="#ffffff" stroke="transparent" points="-4,4 -4,-187 944,-187 944,4 -4,4"/>
<!-- Drawable -->
<g id="node1" class="node">
<title>Drawable</title>
<path fill="none" stroke="#000000" d="M482.5,-146.5C482.5,-146.5 534.5,-146.5 534.5,-146.5 540.5,-146.5 546.5,-152.5 546.5,-158.5 546.5,-158.5 546.5,-170.5 546.5,-170.5 546.5,-176.5 540.5,-182.5 534.5,-182.5 534.5,-182.5 482.5,-182.5 482.5,-182.5 476.5,-182.5 470.5,-176.5 470.5,-170.5 470.5,-170.5 470.5,-158.5 470.5,-158.5 470.5,-152.5 476.5,-146.5 482.5,-146.5"/>
<text text-anchor="middle" x="508.5" y="-161.4" font-family="Times,serif" font-size="12.00" fill="#000000">Drawable</text>
</g>
<!-- SlideElement -->
<g id="node2" class="node">
<title>SlideElement</title>
<path fill="none" stroke="#000000" d="M426.5,-73.5C426.5,-73.5 498.5,-73.5 498.5,-73.5 504.5,-73.5 510.5,-79.5 510.5,-85.5 510.5,-85.5 510.5,-97.5 510.5,-97.5 510.5,-103.5 504.5,-109.5 498.5,-109.5 498.5,-109.5 426.5,-109.5 426.5,-109.5 420.5,-109.5 414.5,-103.5 414.5,-97.5 414.5,-97.5 414.5,-85.5 414.5,-85.5 414.5,-79.5 420.5,-73.5 426.5,-73.5"/>
<text text-anchor="middle" x="462.5" y="-88.4" font-family="Times,serif" font-size="12.00" fill="#000000">SlideElement</text>
</g>
<!-- Drawable&#45;&gt;SlideElement -->
<g id="edge1" class="edge">
<title>Drawable&#45;&gt;SlideElement</title>
<path fill="none" stroke="#000000" d="M491.6931,-137.8282C485.7753,-128.4369 479.2665,-118.1077 473.8994,-109.5904"/>
<polygon fill="#000000" stroke="#000000" points="488.8368,-139.8606 497.1292,-146.4551 494.7591,-136.1287 488.8368,-139.8606"/>
</g>
<!-- Slide -->
<g id="node3" class="node">
<title>Slide</title>
<path fill="none" stroke="#000000" d="M540.5,-73.5C540.5,-73.5 570.5,-73.5 570.5,-73.5 576.5,-73.5 582.5,-79.5 582.5,-85.5 582.5,-85.5 582.5,-97.5 582.5,-97.5 582.5,-103.5 576.5,-109.5 570.5,-109.5 570.5,-109.5 540.5,-109.5 540.5,-109.5 534.5,-109.5 528.5,-103.5 528.5,-97.5 528.5,-97.5 528.5,-85.5 528.5,-85.5 528.5,-79.5 534.5,-73.5 540.5,-73.5"/>
<text text-anchor="middle" x="555.5" y="-88.4" font-family="Times,serif" font-size="12.00" fill="#000000">Slide</text>
</g>
<!-- Drawable&#45;&gt;Slide -->
<g id="edge2" class="edge">
<title>Drawable&#45;&gt;Slide</title>
<path fill="none" stroke="#000000" d="M525.6723,-137.8282C531.7187,-128.4369 538.369,-118.1077 543.8528,-109.5904"/>
<polygon fill="#000000" stroke="#000000" points="522.5886,-136.1523 520.118,-146.4551 528.4742,-139.9417 522.5886,-136.1523"/>
</g>
<!-- Array1DElement -->
<g id="node4" class="node">
<title>Array1DElement</title>
<path fill="none" stroke="#000000" d="M12,-.5C12,-.5 107,-.5 107,-.5 113,-.5 119,-6.5 119,-12.5 119,-12.5 119,-24.5 119,-24.5 119,-30.5 113,-36.5 107,-36.5 107,-36.5 12,-36.5 12,-36.5 6,-36.5 0,-30.5 0,-24.5 0,-24.5 0,-12.5 0,-12.5 0,-6.5 6,-.5 12,-.5"/>
<text text-anchor="middle" x="59.5" y="-15.4" font-family="Times,serif" font-size="12.00" fill="#000000">Array1DElement</text>
</g>
<!-- SlideElement&#45;&gt;Array1DElement -->
<g id="edge3" class="edge">
<title>SlideElement&#45;&gt;Array1DElement</title>
<path fill="none" stroke="#000000" d="M404.5438,-83.944C337.4797,-74.7685 223.9044,-57.896 127.5,-37 124.7499,-36.4039 121.9451,-35.7656 119.1175,-35.0975"/>
<polygon fill="#000000" stroke="#000000" points="404.1155,-87.4179 414.4956,-85.2958 405.0577,-80.4816 404.1155,-87.4179"/>
</g>
<!-- Array2DElement -->
<g id="node5" class="node">
<title>Array2DElement</title>
<path fill="none" stroke="#000000" d="M149,-.5C149,-.5 244,-.5 244,-.5 250,-.5 256,-6.5 256,-12.5 256,-12.5 256,-24.5 256,-24.5 256,-30.5 250,-36.5 244,-36.5 244,-36.5 149,-36.5 149,-36.5 143,-36.5 137,-30.5 137,-24.5 137,-24.5 137,-12.5 137,-12.5 137,-6.5 143,-.5 149,-.5"/>
<text text-anchor="middle" x="196.5" y="-15.4" font-family="Times,serif" font-size="12.00" fill="#000000">Array2DElement</text>
</g>
<!-- SlideElement&#45;&gt;Array2DElement -->
<g id="edge4" class="edge">
<title>SlideElement&#45;&gt;Array2DElement</title>
<path fill="none" stroke="#000000" d="M404.6756,-75.6309C360.8393,-63.6006 300.7795,-47.1181 256.4339,-34.948"/>
<polygon fill="#000000" stroke="#000000" points="403.7597,-79.0089 414.3294,-78.2803 405.6123,-72.2585 403.7597,-79.0089"/>
</g>
<!-- LatexElement -->
<g id="node6" class="node">
<title>LatexElement</title>
<path fill="none" stroke="#000000" d="M286.5,-.5C286.5,-.5 362.5,-.5 362.5,-.5 368.5,-.5 374.5,-6.5 374.5,-12.5 374.5,-12.5 374.5,-24.5 374.5,-24.5 374.5,-30.5 368.5,-36.5 362.5,-36.5 362.5,-36.5 286.5,-36.5 286.5,-36.5 280.5,-36.5 274.5,-30.5 274.5,-24.5 274.5,-24.5 274.5,-12.5 274.5,-12.5 274.5,-6.5 280.5,-.5 286.5,-.5"/>
<text text-anchor="middle" x="324.5" y="-15.4" font-family="Times,serif" font-size="12.00" fill="#000000">LatexElement</text>
</g>
<!-- SlideElement&#45;&gt;LatexElement -->
<g id="edge5" class="edge">
<title>SlideElement&#45;&gt;LatexElement</title>
<path fill="none" stroke="#000000" d="M419.3748,-68.6874C399.8275,-58.3472 377.0405,-46.2931 358.6982,-36.5904"/>
<polygon fill="#000000" stroke="#000000" points="417.9116,-71.8729 428.3876,-73.4551 421.1848,-65.6853 417.9116,-71.8729"/>
</g>
<!-- SourceCodeElement -->
<g id="node7" class="node">
<title>SourceCodeElement</title>
<path fill="none" stroke="#000000" d="M404.5,-.5C404.5,-.5 520.5,-.5 520.5,-.5 526.5,-.5 532.5,-6.5 532.5,-12.5 532.5,-12.5 532.5,-24.5 532.5,-24.5 532.5,-30.5 526.5,-36.5 520.5,-36.5 520.5,-36.5 404.5,-36.5 404.5,-36.5 398.5,-36.5 392.5,-30.5 392.5,-24.5 392.5,-24.5 392.5,-12.5 392.5,-12.5 392.5,-6.5 398.5,-.5 404.5,-.5"/>
<text text-anchor="middle" x="462.5" y="-15.4" font-family="Times,serif" font-size="12.00" fill="#000000">SourceCodeElement</text>
</g>
<!-- SlideElement&#45;&gt;SourceCodeElement -->
<g id="edge6" class="edge">
<title>SlideElement&#45;&gt;SourceCodeElement</title>
<path fill="none" stroke="#000000" d="M462.5,-63.3688C462.5,-54.3769 462.5,-44.6687 462.5,-36.5904"/>
<polygon fill="#000000" stroke="#000000" points="459.0001,-63.455 462.5,-73.4551 466.0001,-63.4551 459.0001,-63.455"/>
</g>
<!-- VariableElement -->
<g id="node8" class="node">
<title>VariableElement</title>
<path fill="none" stroke="#000000" d="M563,-.5C563,-.5 656,-.5 656,-.5 662,-.5 668,-6.5 668,-12.5 668,-12.5 668,-24.5 668,-24.5 668,-30.5 662,-36.5 656,-36.5 656,-36.5 563,-36.5 563,-36.5 557,-36.5 551,-30.5 551,-24.5 551,-24.5 551,-12.5 551,-12.5 551,-6.5 557,-.5 563,-.5"/>
<text text-anchor="middle" x="609.5" y="-15.4" font-family="Times,serif" font-size="12.00" fill="#000000">VariableElement</text>
</g>
<!-- SlideElement&#45;&gt;VariableElement -->
<g id="edge7" class="edge">
<title>SlideElement&#45;&gt;VariableElement</title>
<path fill="none" stroke="#000000" d="M507.8733,-68.9677C528.8201,-58.5655 553.3562,-46.381 573.0715,-36.5904"/>
<polygon fill="#000000" stroke="#000000" points="506.2368,-65.8725 498.8371,-73.4551 509.3503,-72.142 506.2368,-65.8725"/>
</g>
<!-- BlockElement -->
<g id="node9" class="node">
<title>BlockElement</title>
<path fill="none" stroke="#000000" d="M698,-.5C698,-.5 775,-.5 775,-.5 781,-.5 787,-6.5 787,-12.5 787,-12.5 787,-24.5 787,-24.5 787,-30.5 781,-36.5 775,-36.5 775,-36.5 698,-36.5 698,-36.5 692,-36.5 686,-30.5 686,-24.5 686,-24.5 686,-12.5 686,-12.5 686,-6.5 692,-.5 698,-.5"/>
<text text-anchor="middle" x="736.5" y="-15.4" font-family="Times,serif" font-size="12.00" fill="#000000">BlockElement</text>
</g>
<!-- SlideElement&#45;&gt;BlockElement -->
<g id="edge8" class="edge">
<title>SlideElement&#45;&gt;BlockElement</title>
<path fill="none" stroke="#000000" d="M520.3338,-72.8921C590.2157,-54.034 610.3298,-54.7618 676.5,-37 679.5531,-36.1805 682.6844,-35.3092 685.8371,-34.4085"/>
<polygon fill="#000000" stroke="#000000" points="519.3322,-69.5375 510.6115,-75.5541 521.1809,-76.289 519.3322,-69.5375"/>
</g>
<!-- ItemizeElement -->
<g id="node10" class="node">
<title>ItemizeElement</title>
<path fill="none" stroke="#000000" d="M817.5,-.5C817.5,-.5 903.5,-.5 903.5,-.5 909.5,-.5 915.5,-6.5 915.5,-12.5 915.5,-12.5 915.5,-24.5 915.5,-24.5 915.5,-30.5 909.5,-36.5 903.5,-36.5 903.5,-36.5 817.5,-36.5 817.5,-36.5 811.5,-36.5 805.5,-30.5 805.5,-24.5 805.5,-24.5 805.5,-12.5 805.5,-12.5 805.5,-6.5 811.5,-.5 817.5,-.5"/>
<text text-anchor="middle" x="860.5" y="-15.4" font-family="Times,serif" font-size="12.00" fill="#000000">ItemizeElement</text>
</g>
<!-- SlideElement&#45;&gt;ItemizeElement -->
<g id="edge9" class="edge">
<title>SlideElement&#45;&gt;ItemizeElement</title>
<path fill="none" stroke="#000000" d="M520.6219,-72.9832C642.4844,-46.567 678.1657,-61.6432 796.5,-37 799.444,-36.3869 802.4502,-35.7075 805.4755,-34.9816"/>
<polygon fill="#000000" stroke="#000000" points="519.533,-69.6395 510.5284,-75.2222 521.0491,-76.4734 519.533,-69.6395"/>
</g>
<!-- SlideBuilder -->
<g id="node11" class="node">
<title>SlideBuilder</title>
<path fill="none" stroke="#000000" d="M624,-146.5C624,-146.5 691,-146.5 691,-146.5 697,-146.5 703,-152.5 703,-158.5 703,-158.5 703,-170.5 703,-170.5 703,-176.5 697,-182.5 691,-182.5 691,-182.5 624,-182.5 624,-182.5 618,-182.5 612,-176.5 612,-170.5 612,-170.5 612,-158.5 612,-158.5 612,-152.5 618,-146.5 624,-146.5"/>
<text text-anchor="middle" x="657.5" y="-161.4" font-family="Times,serif" font-size="12.00" fill="#000000">SlideBuilder</text>
</g>
<!-- Presentation -->
<g id="node12" class="node">
<title>Presentation</title>
<path fill="none" stroke="#000000" d="M756,-146.5C756,-146.5 825,-146.5 825,-146.5 831,-146.5 837,-152.5 837,-158.5 837,-158.5 837,-170.5 837,-170.5 837,-176.5 831,-182.5 825,-182.5 825,-182.5 756,-182.5 756,-182.5 750,-182.5 744,-176.5 744,-170.5 744,-170.5 744,-158.5 744,-158.5 744,-152.5 750,-146.5 756,-146.5"/>
<text text-anchor="middle" x="790.5" y="-161.4" font-family="Times,serif" font-size="12.00" fill="#000000">Presentation</text>
</g>
<!-- HTMLPresentation -->
<g id="node13" class="node">
<title>HTMLPresentation</title>
<path fill="none" stroke="#000000" d="M674.5,-73.5C674.5,-73.5 782.5,-73.5 782.5,-73.5 788.5,-73.5 794.5,-79.5 794.5,-85.5 794.5,-85.5 794.5,-97.5 794.5,-97.5 794.5,-103.5 788.5,-109.5 782.5,-109.5 782.5,-109.5 674.5,-109.5 674.5,-109.5 668.5,-109.5 662.5,-103.5 662.5,-97.5 662.5,-97.5 662.5,-85.5 662.5,-85.5 662.5,-79.5 668.5,-73.5 674.5,-73.5"/>
<text text-anchor="middle" x="728.5" y="-88.4" font-family="Times,serif" font-size="12.00" fill="#000000">HTMLPresentation</text>
</g>
<!-- Presentation&#45;&gt;HTMLPresentation -->
<g id="edge10" class="edge">
<title>Presentation&#45;&gt;HTMLPresentation</title>
<path fill="none" stroke="#000000" d="M768.5849,-138.6968C760.4152,-129.0776 751.3221,-118.3712 743.8644,-109.5904"/>
<polygon fill="#000000" stroke="#000000" points="766.033,-141.0988 775.1742,-146.4551 771.3684,-136.5673 766.033,-141.0988"/>
</g>
<!-- LatexPresentation -->
<g id="node14" class="node">
<title>LatexPresentation</title>
<path fill="none" stroke="#000000" d="M825,-73.5C825,-73.5 928,-73.5 928,-73.5 934,-73.5 940,-79.5 940,-85.5 940,-85.5 940,-97.5 940,-97.5 940,-103.5 934,-109.5 928,-109.5 928,-109.5 825,-109.5 825,-109.5 819,-109.5 813,-103.5 813,-97.5 813,-97.5 813,-85.5 813,-85.5 813,-79.5 819,-73.5 825,-73.5"/>
<text text-anchor="middle" x="876.5" y="-88.4" font-family="Times,serif" font-size="12.00" fill="#000000">LatexPresentation</text>
</g>
<!-- Presentation&#45;&gt;LatexPresentation -->
<g id="edge11" class="edge">
<title>Presentation&#45;&gt;LatexPresentation</title>
<path fill="none" stroke="#000000" d="M819.5448,-139.8457C831.2179,-129.9372 844.4298,-118.7224 855.1881,-109.5904"/>
<polygon fill="#000000" stroke="#000000" points="817.1172,-137.3154 811.7584,-146.4551 821.6472,-142.652 817.1172,-137.3154"/>
</g>
</g>
</svg>
