<?xml version="1.0" encoding="UTF-8" standalone="no"?>
<!DOCTYPE svg PUBLIC "-//W3C//DTD SVG 1.1//EN"
 "http://www.w3.org/Graphics/SVG/1.1/DTD/svg11.dtd">
<!-- Generated by graphviz version 2.40.1 (20161225.0304)
 -->
<!-- Title: %3 Pages: 1 -->
<svg width="777pt" height="191pt"
 viewBox="0.00 0.00 777.00 191.00" xmlns="http://www.w3.org/2000/svg" xmlns:xlink="http://www.w3.org/1999/xlink">
<g id="graph0" class="graph" transform="scale(1 1) rotate(0) translate(4 187)">
<title>%3</title>
<polygon fill="#ffffff" stroke="transparent" points="-4,4 -4,-187 773,-187 773,4 -4,4"/>
<!-- Drawable -->
<g id="node1" class="node">
<title>Drawable</title>
<path fill="none" stroke="#000000" d="M311.5,-146.5C311.5,-146.5 363.5,-146.5 363.5,-146.5 369.5,-146.5 375.5,-152.5 375.5,-158.5 375.5,-158.5 375.5,-170.5 375.5,-170.5 375.5,-176.5 369.5,-182.5 363.5,-182.5 363.5,-182.5 311.5,-182.5 311.5,-182.5 305.5,-182.5 299.5,-176.5 299.5,-170.5 299.5,-170.5 299.5,-158.5 299.5,-158.5 299.5,-152.5 305.5,-146.5 311.5,-146.5"/>
<text text-anchor="middle" x="337.5" y="-161.4" font-family="Times,serif" font-size="12.00" fill="#000000">Drawable</text>
</g>
<!-- SlideElement -->
<g id="node2" class="node">
<title>SlideElement</title>
<path fill="none" stroke="#000000" d="M255.5,-73.5C255.5,-73.5 327.5,-73.5 327.5,-73.5 333.5,-73.5 339.5,-79.5 339.5,-85.5 339.5,-85.5 339.5,-97.5 339.5,-97.5 339.5,-103.5 333.5,-109.5 327.5,-109.5 327.5,-109.5 255.5,-109.5 255.5,-109.5 249.5,-109.5 243.5,-103.5 243.5,-97.5 243.5,-97.5 243.5,-85.5 243.5,-85.5 243.5,-79.5 249.5,-73.5 255.5,-73.5"/>
<text text-anchor="middle" x="291.5" y="-88.4" font-family="Times,serif" font-size="12.00" fill="#000000">SlideElement</text>
</g>
<!-- Drawable&#45;&gt;SlideElement -->
<g id="edge1" class="edge">
<title>Drawable&#45;&gt;SlideElement</title>
<path fill="none" stroke="#000000" d="M320.6931,-137.8282C314.7753,-128.4369 308.2665,-118.1077 302.8994,-109.5904"/>
<polygon fill="#000000" stroke="#000000" points="317.8368,-139.8606 326.1292,-146.4551 323.7591,-136.1287 317.8368,-139.8606"/>
</g>
<!-- Slide -->
<g id="node3" class="node">
<title>Slide</title>
<path fill="none" stroke="#000000" d="M369.5,-73.5C369.5,-73.5 399.5,-73.5 399.5,-73.5 405.5,-73.5 411.5,-79.5 411.5,-85.5 411.5,-85.5 411.5,-97.5 411.5,-97.5 411.5,-103.5 405.5,-109.5 399.5,-109.5 399.5,-109.5 369.5,-109.5 369.5,-109.5 363.5,-109.5 357.5,-103.5 357.5,-97.5 357.5,-97.5 357.5,-85.5 357.5,-85.5 357.5,-79.5 363.5,-73.5 369.5,-73.5"/>
<text text-anchor="middle" x="384.5" y="-88.4" font-family="Times,serif" font-size="12.00" fill="#000000">Slide</text>
</g>
<!-- Drawable&#45;&gt;Slide -->
<g id="edge2" class="edge">
<title>Drawable&#45;&gt;Slide</title>
<path fill="none" stroke="#000000" d="M354.6723,-137.8282C360.7187,-128.4369 367.369,-118.1077 372.8528,-109.5904"/>
<polygon fill="#000000" stroke="#000000" points="351.5886,-136.1523 349.118,-146.4551 357.4742,-139.9417 351.5886,-136.1523"/>
</g>
<!-- Array1D -->
<g id="node4" class="node">
<title>Array1D</title>
<path fill="none" stroke="#000000" d="M12,-.5C12,-.5 57,-.5 57,-.5 63,-.5 69,-6.5 69,-12.5 69,-12.5 69,-24.5 69,-24.5 69,-30.5 63,-36.5 57,-36.5 57,-36.5 12,-36.5 12,-36.5 6,-36.5 0,-30.5 0,-24.5 0,-24.5 0,-12.5 0,-12.5 0,-6.5 6,-.5 12,-.5"/>
<text text-anchor="middle" x="34.5" y="-15.4" font-family="Times,serif" font-size="12.00" fill="#000000">Array1D</text>
</g>
<!-- SlideElement&#45;&gt;Array1D -->
<g id="edge3" class="edge">
<title>SlideElement&#45;&gt;Array1D</title>
<path fill="none" stroke="#000000" d="M233.444,-79.3102C189.9863,-69.5628 129.3577,-54.6371 77.5,-37 74.7301,-36.058 71.889,-35.015 69.0513,-33.9182"/>
<polygon fill="#000000" stroke="#000000" points="232.7537,-82.7421 243.2746,-81.4926 234.2708,-75.9085 232.7537,-82.7421"/>
</g>
<!-- Array2D -->
<g id="node5" class="node">
<title>Array2D</title>
<path fill="none" stroke="#000000" d="M99,-.5C99,-.5 144,-.5 144,-.5 150,-.5 156,-6.5 156,-12.5 156,-12.5 156,-24.5 156,-24.5 156,-30.5 150,-36.5 144,-36.5 144,-36.5 99,-36.5 99,-36.5 93,-36.5 87,-30.5 87,-24.5 87,-24.5 87,-12.5 87,-12.5 87,-6.5 93,-.5 99,-.5"/>
<text text-anchor="middle" x="121.5" y="-15.4" font-family="Times,serif" font-size="12.00" fill="#000000">Array2D</text>
</g>
<!-- SlideElement&#45;&gt;Array2D -->
<g id="edge4" class="edge">
<title>SlideElement&#45;&gt;Array2D</title>
<path fill="none" stroke="#000000" d="M240.1199,-69.4368C212.956,-57.7723 180.331,-43.7627 156.1775,-33.3909"/>
<polygon fill="#000000" stroke="#000000" points="238.9078,-72.7253 249.4775,-73.4551 241.6699,-66.2932 238.9078,-72.7253"/>
</g>
<!-- Latex -->
<g id="node6" class="node">
<title>Latex</title>
<path fill="none" stroke="#000000" d="M186.5,-.5C186.5,-.5 216.5,-.5 216.5,-.5 222.5,-.5 228.5,-6.5 228.5,-12.5 228.5,-12.5 228.5,-24.5 228.5,-24.5 228.5,-30.5 222.5,-36.5 216.5,-36.5 216.5,-36.5 186.5,-36.5 186.5,-36.5 180.5,-36.5 174.5,-30.5 174.5,-24.5 174.5,-24.5 174.5,-12.5 174.5,-12.5 174.5,-6.5 180.5,-.5 186.5,-.5"/>
<text text-anchor="middle" x="201.5" y="-15.4" font-family="Times,serif" font-size="12.00" fill="#000000">Latex</text>
</g>
<!-- SlideElement&#45;&gt;Latex -->
<g id="edge5" class="edge">
<title>SlideElement&#45;&gt;Latex</title>
<path fill="none" stroke="#000000" d="M261.4562,-67.1311C249.1544,-57.153 235.1701,-45.8102 223.8032,-36.5904"/>
<polygon fill="#000000" stroke="#000000" points="259.2816,-69.8738 269.2528,-73.4551 263.6912,-64.4373 259.2816,-69.8738"/>
</g>
<!-- SourceCode -->
<g id="node7" class="node">
<title>SourceCode</title>
<path fill="none" stroke="#000000" d="M258.5,-.5C258.5,-.5 324.5,-.5 324.5,-.5 330.5,-.5 336.5,-6.5 336.5,-12.5 336.5,-12.5 336.5,-24.5 336.5,-24.5 336.5,-30.5 330.5,-36.5 324.5,-36.5 324.5,-36.5 258.5,-36.5 258.5,-36.5 252.5,-36.5 246.5,-30.5 246.5,-24.5 246.5,-24.5 246.5,-12.5 246.5,-12.5 246.5,-6.5 252.5,-.5 258.5,-.5"/>
<text text-anchor="middle" x="291.5" y="-15.4" font-family="Times,serif" font-size="12.00" fill="#000000">SourceCode</text>
</g>
<!-- SlideElement&#45;&gt;SourceCode -->
<g id="edge6" class="edge">
<title>SlideElement&#45;&gt;SourceCode</title>
<path fill="none" stroke="#000000" d="M291.5,-63.3688C291.5,-54.3769 291.5,-44.6687 291.5,-36.5904"/>
<polygon fill="#000000" stroke="#000000" points="288.0001,-63.455 291.5,-73.4551 295.0001,-63.4551 288.0001,-63.455"/>
</g>
<!-- Variable -->
<g id="node8" class="node">
<title>Variable</title>
<path fill="none" stroke="#000000" d="M366.5,-.5C366.5,-.5 410.5,-.5 410.5,-.5 416.5,-.5 422.5,-6.5 422.5,-12.5 422.5,-12.5 422.5,-24.5 422.5,-24.5 422.5,-30.5 416.5,-36.5 410.5,-36.5 410.5,-36.5 366.5,-36.5 366.5,-36.5 360.5,-36.5 354.5,-30.5 354.5,-24.5 354.5,-24.5 354.5,-12.5 354.5,-12.5 354.5,-6.5 360.5,-.5 366.5,-.5"/>
<text text-anchor="middle" x="388.5" y="-15.4" font-family="Times,serif" font-size="12.00" fill="#000000">Variable</text>
</g>
<!-- SlideElement&#45;&gt;Variable -->
<g id="edge7" class="edge">
<title>SlideElement&#45;&gt;Variable</title>
<path fill="none" stroke="#000000" d="M323.5022,-67.4158C336.8518,-57.3693 352.0944,-45.898 364.4621,-36.5904"/>
<polygon fill="#000000" stroke="#000000" points="321.363,-64.6453 315.4775,-73.4551 325.5723,-70.2384 321.363,-64.6453"/>
</g>
<!-- Block -->
<g id="node9" class="node">
<title>Block</title>
<path fill="none" stroke="#000000" d="M452.5,-.5C452.5,-.5 482.5,-.5 482.5,-.5 488.5,-.5 494.5,-6.5 494.5,-12.5 494.5,-12.5 494.5,-24.5 494.5,-24.5 494.5,-30.5 488.5,-36.5 482.5,-36.5 482.5,-36.5 452.5,-36.5 452.5,-36.5 446.5,-36.5 440.5,-30.5 440.5,-24.5 440.5,-24.5 440.5,-12.5 440.5,-12.5 440.5,-6.5 446.5,-.5 452.5,-.5"/>
<text text-anchor="middle" x="467.5" y="-15.4" font-family="Times,serif" font-size="12.00" fill="#000000">Block</text>
</g>
<!-- SlideElement&#45;&gt;Block -->
<g id="edge8" class="edge">
<title>SlideElement&#45;&gt;Block</title>
<path fill="none" stroke="#000000" d="M349.1556,-70.5928C374.6441,-60.9573 404.8217,-49.0088 431.5,-37 434.3194,-35.7309 437.2331,-34.3515 440.1254,-32.9373"/>
<polygon fill="#000000" stroke="#000000" points="347.7653,-67.3761 339.6336,-74.1677 350.2257,-73.9295 347.7653,-67.3761"/>
</g>
<!-- Itemize -->
<g id="node10" class="node">
<title>Itemize</title>
<path fill="none" stroke="#000000" d="M524.5,-.5C524.5,-.5 560.5,-.5 560.5,-.5 566.5,-.5 572.5,-6.5 572.5,-12.5 572.5,-12.5 572.5,-24.5 572.5,-24.5 572.5,-30.5 566.5,-36.5 560.5,-36.5 560.5,-36.5 524.5,-36.5 524.5,-36.5 518.5,-36.5 512.5,-30.5 512.5,-24.5 512.5,-24.5 512.5,-12.5 512.5,-12.5 512.5,-6.5 518.5,-.5 524.5,-.5"/>
<text text-anchor="middle" x="542.5" y="-15.4" font-family="Times,serif" font-size="12.00" fill="#000000">Itemize</text>
</g>
<!-- SlideElement&#45;&gt;Itemize -->
<g id="edge9" class="edge">
<title>SlideElement&#45;&gt;Itemize</title>
<path fill="none" stroke="#000000" d="M349.6594,-72.8293C418.5394,-54.5659 439.7219,-59.2432 503.5,-37 506.3304,-36.0129 509.2284,-34.8826 512.1039,-33.6779"/>
<polygon fill="#000000" stroke="#000000" points="348.3438,-69.56 339.6142,-75.5637 350.1824,-76.3142 348.3438,-69.56"/>
</g>
<!-- SlideBuilder -->
<g id="node11" class="node">
<title>SlideBuilder</title>
<path fill="none" stroke="#000000" d="M453,-146.5C453,-146.5 520,-146.5 520,-146.5 526,-146.5 532,-152.5 532,-158.5 532,-158.5 532,-170.5 532,-170.5 532,-176.5 526,-182.5 520,-182.5 520,-182.5 453,-182.5 453,-182.5 447,-182.5 441,-176.5 441,-170.5 441,-170.5 441,-158.5 441,-158.5 441,-152.5 447,-146.5 453,-146.5"/>
<text text-anchor="middle" x="486.5" y="-161.4" font-family="Times,serif" font-size="12.00" fill="#000000">SlideBuilder</text>
</g>
<!-- Presentation -->
<g id="node12" class="node">
<title>Presentation</title>
<path fill="none" stroke="#000000" d="M585,-146.5C585,-146.5 654,-146.5 654,-146.5 660,-146.5 666,-152.5 666,-158.5 666,-158.5 666,-170.5 666,-170.5 666,-176.5 660,-182.5 654,-182.5 654,-182.5 585,-182.5 585,-182.5 579,-182.5 573,-176.5 573,-170.5 573,-170.5 573,-158.5 573,-158.5 573,-152.5 579,-146.5 585,-146.5"/>
<text text-anchor="middle" x="619.5" y="-161.4" font-family="Times,serif" font-size="12.00" fill="#000000">Presentation</text>
</g>
<!-- HTMLPresentation -->
<g id="node13" class="node">
<title>HTMLPresentation</title>
<path fill="none" stroke="#000000" d="M503.5,-73.5C503.5,-73.5 611.5,-73.5 611.5,-73.5 617.5,-73.5 623.5,-79.5 623.5,-85.5 623.5,-85.5 623.5,-97.5 623.5,-97.5 623.5,-103.5 617.5,-109.5 611.5,-109.5 611.5,-109.5 503.5,-109.5 503.5,-109.5 497.5,-109.5 491.5,-103.5 491.5,-97.5 491.5,-97.5 491.5,-85.5 491.5,-85.5 491.5,-79.5 497.5,-73.5 503.5,-73.5"/>
<text text-anchor="middle" x="557.5" y="-88.4" font-family="Times,serif" font-size="12.00" fill="#000000">HTMLPresentation</text>
</g>
<!-- Presentation&#45;&gt;HTMLPresentation -->
<g id="edge10" class="edge">
<title>Presentation&#45;&gt;HTMLPresentation</title>
<path fill="none" stroke="#000000" d="M597.5849,-138.6968C589.4152,-129.0776 580.3221,-118.3712 572.8644,-109.5904"/>
<polygon fill="#000000" stroke="#000000" points="595.033,-141.0988 604.1742,-146.4551 600.3684,-136.5673 595.033,-141.0988"/>
</g>
<!-- LatexPresentation -->
<g id="node14" class="node">
<title>LatexPresentation</title>
<path fill="none" stroke="#000000" d="M654,-73.5C654,-73.5 757,-73.5 757,-73.5 763,-73.5 769,-79.5 769,-85.5 769,-85.5 769,-97.5 769,-97.5 769,-103.5 763,-109.5 757,-109.5 757,-109.5 654,-109.5 654,-109.5 648,-109.5 642,-103.5 642,-97.5 642,-97.5 642,-85.5 642,-85.5 642,-79.5 648,-73.5 654,-73.5"/>
<text text-anchor="middle" x="705.5" y="-88.4" font-family="Times,serif" font-size="12.00" fill="#000000">LatexPresentation</text>
</g>
<!-- Presentation&#45;&gt;LatexPresentation -->
<g id="edge11" class="edge">
<title>Presentation&#45;&gt;LatexPresentation</title>
<path fill="none" stroke="#000000" d="M648.5448,-139.8457C660.2179,-129.9372 673.4298,-118.7224 684.1881,-109.5904"/>
<polygon fill="#000000" stroke="#000000" points="646.1172,-137.3154 640.7584,-146.4551 650.6472,-142.652 646.1172,-137.3154"/>
</g>
</g>
</svg>
