<?xml version="1.0" encoding="UTF-8" standalone="no"?>
<!DOCTYPE svg PUBLIC "-//W3C//DTD SVG 1.1//EN"
 "http://www.w3.org/Graphics/SVG/1.1/DTD/svg11.dtd">
<!-- Generated by graphviz version 2.40.1 (20161225.0304)
 -->
<!-- Title: %3 Pages: 1 -->
<svg width="1076pt" height="720pt"
 viewBox="0.00 0.00 1076.04 720.00" xmlns="http://www.w3.org/2000/svg" xmlns:xlink="http://www.w3.org/1999/xlink">
<g id="graph0" class="graph" transform="scale(.989 .989) rotate(0) translate(4 724)">
<title>%3</title>
<polygon fill="#ffffff" stroke="transparent" points="-4,4 -4,-724 1084,-724 1084,4 -4,4"/>
<!-- Drawable -->
<g id="node1" class="node">
<title>Drawable</title>
<path fill="none" stroke="#000000" d="M557.8936,-629C557.8936,-629 609.8936,-629 609.8936,-629 615.8936,-629 621.8936,-635 621.8936,-641 621.8936,-641 621.8936,-653 621.8936,-653 621.8936,-659 615.8936,-665 609.8936,-665 609.8936,-665 557.8936,-665 557.8936,-665 551.8936,-665 545.8936,-659 545.8936,-653 545.8936,-653 545.8936,-641 545.8936,-641 545.8936,-635 551.8936,-629 557.8936,-629"/>
<text text-anchor="middle" x="583.8936" y="-643.9" font-family="Times,serif" font-size="12.00" fill="#000000">Drawable</text>
</g>
<!-- SlideElement -->
<g id="node2" class="node">
<title>SlideElement</title>
<path fill="none" stroke="#000000" d="M494.8936,-342C494.8936,-342 566.8936,-342 566.8936,-342 572.8936,-342 578.8936,-348 578.8936,-354 578.8936,-354 578.8936,-366 578.8936,-366 578.8936,-372 572.8936,-378 566.8936,-378 566.8936,-378 494.8936,-378 494.8936,-378 488.8936,-378 482.8936,-372 482.8936,-366 482.8936,-366 482.8936,-354 482.8936,-354 482.8936,-348 488.8936,-342 494.8936,-342"/>
<text text-anchor="middle" x="530.8936" y="-356.9" font-family="Times,serif" font-size="12.00" fill="#000000">SlideElement</text>
</g>
<!-- Drawable&#45;&gt;SlideElement -->
<g id="edge1" class="edge">
<title>Drawable&#45;&gt;SlideElement</title>
<path fill="none" stroke="#000000" d="M578.6412,-618.5574C567.8064,-559.886 543.2407,-426.8605 534.2613,-378.2366"/>
<polygon fill="#000000" stroke="#000000" points="575.2397,-619.4122 580.4976,-628.6103 582.1233,-618.1409 575.2397,-619.4122"/>
</g>
<!-- Slide -->
<g id="node3" class="node">
<title>Slide</title>
<path fill="none" stroke="#000000" d="M622.8936,-342C622.8936,-342 652.8936,-342 652.8936,-342 658.8936,-342 664.8936,-348 664.8936,-354 664.8936,-354 664.8936,-366 664.8936,-366 664.8936,-372 658.8936,-378 652.8936,-378 652.8936,-378 622.8936,-378 622.8936,-378 616.8936,-378 610.8936,-372 610.8936,-366 610.8936,-366 610.8936,-354 610.8936,-354 610.8936,-348 616.8936,-342 622.8936,-342"/>
<text text-anchor="middle" x="637.8936" y="-356.9" font-family="Times,serif" font-size="12.00" fill="#000000">Slide</text>
</g>
<!-- Drawable&#45;&gt;Slide -->
<g id="edge2" class="edge">
<title>Drawable&#45;&gt;Slide</title>
<path fill="none" stroke="#000000" d="M589.2452,-618.5574C600.2844,-559.886 625.3136,-426.8605 634.4623,-378.2366"/>
<polygon fill="#000000" stroke="#000000" points="585.7632,-618.1355 587.3537,-628.6103 592.6425,-619.4299 585.7632,-618.1355"/>
</g>
<!-- Array1DElement -->
<g id="node4" class="node">
<title>Array1DElement</title>
<path fill="none" stroke="#000000" d="M20.3936,-55C20.3936,-55 115.3936,-55 115.3936,-55 121.3936,-55 127.3936,-61 127.3936,-67 127.3936,-67 127.3936,-79 127.3936,-79 127.3936,-85 121.3936,-91 115.3936,-91 115.3936,-91 20.3936,-91 20.3936,-91 14.3936,-91 8.3936,-85 8.3936,-79 8.3936,-79 8.3936,-67 8.3936,-67 8.3936,-61 14.3936,-55 20.3936,-55"/>
<text text-anchor="middle" x="67.8936" y="-69.9" font-family="Times,serif" font-size="12.00" fill="#000000">Array1DElement</text>
</g>
<!-- SlideElement&#45;&gt;Array1DElement -->
<g id="edge3" class="edge">
<title>SlideElement&#45;&gt;Array1DElement</title>
<path fill="none" stroke="#000000" d="M493.0466,-336.5397C403.0187,-280.7341 177.6281,-141.0212 97.0794,-91.0914"/>
<polygon fill="#000000" stroke="#000000" points="491.2361,-339.5353 501.5796,-341.8291 494.9241,-333.5856 491.2361,-339.5353"/>
</g>
<!-- Array2DElement -->
<g id="node5" class="node">
<title>Array2DElement</title>
<path fill="none" stroke="#000000" d="M178.3936,-55C178.3936,-55 273.3936,-55 273.3936,-55 279.3936,-55 285.3936,-61 285.3936,-67 285.3936,-67 285.3936,-79 285.3936,-79 285.3936,-85 279.3936,-91 273.3936,-91 273.3936,-91 178.3936,-91 178.3936,-91 172.3936,-91 166.3936,-85 166.3936,-79 166.3936,-79 166.3936,-67 166.3936,-67 166.3936,-61 172.3936,-55 178.3936,-55"/>
<text text-anchor="middle" x="225.8936" y="-69.9" font-family="Times,serif" font-size="12.00" fill="#000000">Array2DElement</text>
</g>
<!-- SlideElement&#45;&gt;Array2DElement -->
<g id="edge4" class="edge">
<title>SlideElement&#45;&gt;Array2DElement</title>
<path fill="none" stroke="#000000" d="M503.7057,-334.4166C443.0335,-277.3251 297.8052,-140.6676 245.274,-91.2366"/>
<polygon fill="#000000" stroke="#000000" points="501.6693,-337.3063 511.3505,-341.6103 506.4663,-332.2084 501.6693,-337.3063"/>
</g>
<!-- LatexElement -->
<g id="node6" class="node">
<title>LatexElement</title>
<path fill="none" stroke="#000000" d="M334.8936,-55C334.8936,-55 410.8936,-55 410.8936,-55 416.8936,-55 422.8936,-61 422.8936,-67 422.8936,-67 422.8936,-79 422.8936,-79 422.8936,-85 416.8936,-91 410.8936,-91 410.8936,-91 334.8936,-91 334.8936,-91 328.8936,-91 322.8936,-85 322.8936,-79 322.8936,-79 322.8936,-67 322.8936,-67 322.8936,-61 328.8936,-55 334.8936,-55"/>
<text text-anchor="middle" x="372.8936" y="-69.9" font-family="Times,serif" font-size="12.00" fill="#000000">LatexElement</text>
</g>
<!-- SlideElement&#45;&gt;LatexElement -->
<g id="edge5" class="edge">
<title>SlideElement&#45;&gt;LatexElement</title>
<path fill="none" stroke="#000000" d="M515.8337,-332.6443C483.8488,-274.5452 409.8685,-140.1632 382.9333,-91.2366"/>
<polygon fill="#000000" stroke="#000000" points="512.8808,-334.538 520.7697,-341.6103 519.013,-331.1621 512.8808,-334.538"/>
</g>
<!-- SourceCodeElement -->
<g id="node7" class="node">
<title>SourceCodeElement</title>
<path fill="none" stroke="#000000" d="M472.8936,-55C472.8936,-55 588.8936,-55 588.8936,-55 594.8936,-55 600.8936,-61 600.8936,-67 600.8936,-67 600.8936,-79 600.8936,-79 600.8936,-85 594.8936,-91 588.8936,-91 588.8936,-91 472.8936,-91 472.8936,-91 466.8936,-91 460.8936,-85 460.8936,-79 460.8936,-79 460.8936,-67 460.8936,-67 460.8936,-61 466.8936,-55 472.8936,-55"/>
<text text-anchor="middle" x="530.8936" y="-69.9" font-family="Times,serif" font-size="12.00" fill="#000000">SourceCodeElement</text>
</g>
<!-- SlideElement&#45;&gt;SourceCodeElement -->
<g id="edge6" class="edge">
<title>SlideElement&#45;&gt;SourceCodeElement</title>
<path fill="none" stroke="#000000" d="M530.8936,-331.5574C530.8936,-272.886 530.8936,-139.8605 530.8936,-91.2366"/>
<polygon fill="#000000" stroke="#000000" points="527.3937,-331.6102 530.8936,-341.6103 534.3937,-331.6103 527.3937,-331.6102"/>
</g>
<!-- VariableElement -->
<g id="node8" class="node">
<title>VariableElement</title>
<path fill="none" stroke="#000000" d="M653.3936,-55C653.3936,-55 746.3936,-55 746.3936,-55 752.3936,-55 758.3936,-61 758.3936,-67 758.3936,-67 758.3936,-79 758.3936,-79 758.3936,-85 752.3936,-91 746.3936,-91 746.3936,-91 653.3936,-91 653.3936,-91 647.3936,-91 641.3936,-85 641.3936,-79 641.3936,-79 641.3936,-67 641.3936,-67 641.3936,-61 647.3936,-55 653.3936,-55"/>
<text text-anchor="middle" x="699.8936" y="-69.9" font-family="Times,serif" font-size="12.00" fill="#000000">VariableElement</text>
</g>
<!-- SlideElement&#45;&gt;VariableElement -->
<g id="edge7" class="edge">
<title>SlideElement&#45;&gt;VariableElement</title>
<path fill="none" stroke="#000000" d="M547.002,-332.6443C581.2137,-274.5452 660.3446,-140.1632 689.155,-91.2366"/>
<polygon fill="#000000" stroke="#000000" points="543.7806,-331.2173 541.7224,-341.6103 549.8126,-334.7692 543.7806,-331.2173"/>
</g>
<!-- BlockElement -->
<g id="node9" class="node">
<title>BlockElement</title>
<path fill="none" stroke="#000000" d="M807.3936,-55C807.3936,-55 884.3936,-55 884.3936,-55 890.3936,-55 896.3936,-61 896.3936,-67 896.3936,-67 896.3936,-79 896.3936,-79 896.3936,-85 890.3936,-91 884.3936,-91 884.3936,-91 807.3936,-91 807.3936,-91 801.3936,-91 795.3936,-85 795.3936,-79 795.3936,-79 795.3936,-67 795.3936,-67 795.3936,-61 801.3936,-55 807.3936,-55"/>
<text text-anchor="middle" x="845.8936" y="-69.9" font-family="Times,serif" font-size="12.00" fill="#000000">BlockElement</text>
</g>
<!-- SlideElement&#45;&gt;BlockElement -->
<g id="edge8" class="edge">
<title>SlideElement&#45;&gt;BlockElement</title>
<path fill="none" stroke="#000000" d="M558.5904,-334.7652C621.0218,-277.8832 771.5136,-140.7685 825.8779,-91.2366"/>
<polygon fill="#000000" stroke="#000000" points="556.1122,-332.2881 551.0775,-341.6103 560.8267,-337.4625 556.1122,-332.2881"/>
</g>
<!-- ItemizeElement -->
<g id="node10" class="node">
<title>ItemizeElement</title>
<path fill="none" stroke="#000000" d="M945.8936,-55C945.8936,-55 1031.8936,-55 1031.8936,-55 1037.8936,-55 1043.8936,-61 1043.8936,-67 1043.8936,-67 1043.8936,-79 1043.8936,-79 1043.8936,-85 1037.8936,-91 1031.8936,-91 1031.8936,-91 945.8936,-91 945.8936,-91 939.8936,-91 933.8936,-85 933.8936,-79 933.8936,-79 933.8936,-67 933.8936,-67 933.8936,-61 939.8936,-55 945.8936,-55"/>
<text text-anchor="middle" x="988.8936" y="-69.9" font-family="Times,serif" font-size="12.00" fill="#000000">ItemizeElement</text>
</g>
<!-- SlideElement&#45;&gt;ItemizeElement -->
<g id="edge9" class="edge">
<title>SlideElement&#45;&gt;ItemizeElement</title>
<path fill="none" stroke="#000000" d="M568.6019,-336.3706C657.8374,-280.4523 880.4246,-140.9708 960.023,-91.0914"/>
<polygon fill="#000000" stroke="#000000" points="566.5063,-333.5533 559.891,-341.8291 570.2233,-339.4849 566.5063,-333.5533"/>
</g>
<!-- SlideBuilder -->
<g id="node11" class="node">
<title>SlideBuilder</title>
<path fill="none" stroke="#000000" d="M722.3936,-629C722.3936,-629 789.3936,-629 789.3936,-629 795.3936,-629 801.3936,-635 801.3936,-641 801.3936,-641 801.3936,-653 801.3936,-653 801.3936,-659 795.3936,-665 789.3936,-665 789.3936,-665 722.3936,-665 722.3936,-665 716.3936,-665 710.3936,-659 710.3936,-653 710.3936,-653 710.3936,-641 710.3936,-641 710.3936,-635 716.3936,-629 722.3936,-629"/>
<text text-anchor="middle" x="755.8936" y="-643.9" font-family="Times,serif" font-size="12.00" fill="#000000">SlideBuilder</text>
</g>
<!-- Presentation -->
<g id="node12" class="node">
<title>Presentation</title>
<path fill="none" stroke="#000000" d="M873.3936,-629C873.3936,-629 942.3936,-629 942.3936,-629 948.3936,-629 954.3936,-635 954.3936,-641 954.3936,-641 954.3936,-653 954.3936,-653 954.3936,-659 948.3936,-665 942.3936,-665 942.3936,-665 873.3936,-665 873.3936,-665 867.3936,-665 861.3936,-659 861.3936,-653 861.3936,-653 861.3936,-641 861.3936,-641 861.3936,-635 867.3936,-629 873.3936,-629"/>
<text text-anchor="middle" x="907.8936" y="-643.9" font-family="Times,serif" font-size="12.00" fill="#000000">Presentation</text>
</g>
<!-- HTMLPresentation -->
<g id="node13" class="node">
<title>HTMLPresentation</title>
<path fill="none" stroke="#000000" d="M782.8936,-342C782.8936,-342 890.8936,-342 890.8936,-342 896.8936,-342 902.8936,-348 902.8936,-354 902.8936,-354 902.8936,-366 902.8936,-366 902.8936,-372 896.8936,-378 890.8936,-378 890.8936,-378 782.8936,-378 782.8936,-378 776.8936,-378 770.8936,-372 770.8936,-366 770.8936,-366 770.8936,-354 770.8936,-354 770.8936,-348 776.8936,-342 782.8936,-342"/>
<text text-anchor="middle" x="836.8936" y="-356.9" font-family="Times,serif" font-size="12.00" fill="#000000">HTMLPresentation</text>
</g>
<!-- Presentation&#45;&gt;HTMLPresentation -->
<g id="edge10" class="edge">
<title>Presentation&#45;&gt;HTMLPresentation</title>
<path fill="none" stroke="#000000" d="M900.8573,-618.5574C886.3428,-559.886 853.434,-426.8605 841.4051,-378.2366"/>
<polygon fill="#000000" stroke="#000000" points="897.5451,-619.7434 903.3442,-628.6103 904.3403,-618.0624 897.5451,-619.7434"/>
</g>
<!-- LatexPresentation -->
<g id="node14" class="node">
<title>LatexPresentation</title>
<path fill="none" stroke="#000000" d="M955.3936,-342C955.3936,-342 1058.3936,-342 1058.3936,-342 1064.3936,-342 1070.3936,-348 1070.3936,-354 1070.3936,-354 1070.3936,-366 1070.3936,-366 1070.3936,-372 1064.3936,-378 1058.3936,-378 1058.3936,-378 955.3936,-378 955.3936,-378 949.3936,-378 943.3936,-372 943.3936,-366 943.3936,-366 943.3936,-354 943.3936,-354 943.3936,-348 949.3936,-342 955.3936,-342"/>
<text text-anchor="middle" x="1006.8936" y="-356.9" font-family="Times,serif" font-size="12.00" fill="#000000">LatexPresentation</text>
</g>
<!-- Presentation&#45;&gt;LatexPresentation -->
<g id="edge11" class="edge">
<title>Presentation&#45;&gt;LatexPresentation</title>
<path fill="none" stroke="#000000" d="M917.5792,-618.9216C937.7529,-560.4384 983.7954,-426.9614 1000.603,-378.2366"/>
<polygon fill="#000000" stroke="#000000" points="914.1894,-618.0155 914.2371,-628.6103 920.8068,-620.2982 914.1894,-618.0155"/>
</g>
</g>
</svg>
