<?xml version="1.0" encoding="UTF-8" standalone="no"?>
<!DOCTYPE svg PUBLIC "-//W3C//DTD SVG 1.1//EN"
 "http://www.w3.org/Graphics/SVG/1.1/DTD/svg11.dtd">
<!-- Generated by graphviz version 2.40.1 (20161225.0304)
 -->
<!-- Title: %3 Pages: 1 -->
<svg width="1068pt" height="188pt"
 viewBox="0.00 0.00 1067.88 188.00" xmlns="http://www.w3.org/2000/svg" xmlns:xlink="http://www.w3.org/1999/xlink">
<g id="graph0" class="graph" transform="scale(1 1) rotate(0) translate(4 184)">
<title>%3</title>
<polygon fill="#ffffff" stroke="transparent" points="-4,4 -4,-184 1063.8835,-184 1063.8835,4 -4,4"/>
<!-- SlideElement -->
<g id="node1" class="node">
<title>SlideElement</title>
<ellipse fill="none" stroke="#000000" cx="468.0421" cy="-90" rx="73.387" ry="18"/>
<text text-anchor="middle" x="468.0421" y="-86.3" font-family="Times,serif" font-size="14.00" fill="#000000">SlideElement</text>
</g>
<!-- Array1DElement -->
<g id="node2" class="node">
<title>Array1DElement</title>
<ellipse fill="none" stroke="#000000" cx="89.0421" cy="-18" rx="89.0842" ry="18"/>
<text text-anchor="middle" x="89.0421" y="-14.3" font-family="Times,serif" font-size="14.00" fill="#000000">Array1DElement</text>
</g>
<!-- SlideElement&#45;&gt;Array1DElement -->
<g id="edge1" class="edge">
<title>SlideElement&#45;&gt;Array1DElement</title>
<path fill="none" stroke="#000000" d="M409.6539,-78.9078C343.7145,-66.381 236.2327,-45.9623 164.1079,-32.2605"/>
<polygon fill="#000000" stroke="#000000" points="164.651,-28.8012 154.1735,-30.3732 163.3445,-35.6782 164.651,-28.8012"/>
</g>
<!-- Array2DElement -->
<g id="node3" class="node">
<title>Array2DElement</title>
<ellipse fill="none" stroke="#000000" cx="285.0421" cy="-18" rx="89.0842" ry="18"/>
<text text-anchor="middle" x="285.0421" y="-14.3" font-family="Times,serif" font-size="14.00" fill="#000000">Array2DElement</text>
</g>
<!-- SlideElement&#45;&gt;Array2DElement -->
<g id="edge2" class="edge">
<title>SlideElement&#45;&gt;Array2DElement</title>
<path fill="none" stroke="#000000" d="M428.784,-74.5542C401.5151,-63.8255 364.9367,-49.4339 335.5039,-37.8538"/>
<polygon fill="#000000" stroke="#000000" points="336.4071,-34.4481 325.82,-34.0438 333.8442,-40.9621 336.4071,-34.4481"/>
</g>
<!-- LatexElement -->
<g id="node7" class="node">
<title>LatexElement</title>
<ellipse fill="none" stroke="#000000" cx="468.0421" cy="-18" rx="76.0865" ry="18"/>
<text text-anchor="middle" x="468.0421" y="-14.3" font-family="Times,serif" font-size="14.00" fill="#000000">LatexElement</text>
</g>
<!-- SlideElement&#45;&gt;LatexElement -->
<g id="edge4" class="edge">
<title>SlideElement&#45;&gt;LatexElement</title>
<path fill="none" stroke="#000000" d="M468.0421,-71.8314C468.0421,-64.131 468.0421,-54.9743 468.0421,-46.4166"/>
<polygon fill="#000000" stroke="#000000" points="471.5422,-46.4132 468.0421,-36.4133 464.5422,-46.4133 471.5422,-46.4132"/>
</g>
<!-- SourceCodeElement -->
<g id="node10" class="node">
<title>SourceCodeElement</title>
<ellipse fill="none" stroke="#000000" cx="669.0421" cy="-18" rx="106.6812" ry="18"/>
<text text-anchor="middle" x="669.0421" y="-14.3" font-family="Times,serif" font-size="14.00" fill="#000000">SourceCodeElement</text>
</g>
<!-- SlideElement&#45;&gt;SourceCodeElement -->
<g id="edge8" class="edge">
<title>SlideElement&#45;&gt;SourceCodeElement</title>
<path fill="none" stroke="#000000" d="M509.6894,-75.0816C539.8308,-64.2846 580.8769,-49.5815 613.7619,-37.8019"/>
<polygon fill="#000000" stroke="#000000" points="615.0096,-41.0728 623.2435,-34.4055 612.6489,-34.4828 615.0096,-41.0728"/>
</g>
<!-- VariableElement -->
<g id="node11" class="node">
<title>VariableElement</title>
<ellipse fill="none" stroke="#000000" cx="881.0421" cy="-18" rx="87.9851" ry="18"/>
<text text-anchor="middle" x="881.0421" y="-14.3" font-family="Times,serif" font-size="14.00" fill="#000000">VariableElement</text>
</g>
<!-- SlideElement&#45;&gt;VariableElement -->
<g id="edge9" class="edge">
<title>SlideElement&#45;&gt;VariableElement</title>
<path fill="none" stroke="#000000" d="M522.4153,-77.712C531.9363,-75.7024 541.7633,-73.7182 551.0421,-72 654.5067,-52.8405 681.3176,-53.6981 785.0421,-36 792.1096,-34.7941 799.4613,-33.4955 806.8105,-32.1678"/>
<polygon fill="#000000" stroke="#000000" points="807.5939,-35.5827 816.8036,-30.3451 806.3379,-28.6963 807.5939,-35.5827"/>
</g>
<!-- Drawable -->
<g id="node4" class="node">
<title>Drawable</title>
<ellipse fill="none" stroke="#000000" cx="531.0421" cy="-162" rx="55.4913" ry="18"/>
<text text-anchor="middle" x="531.0421" y="-158.3" font-family="Times,serif" font-size="14.00" fill="#000000">Drawable</text>
</g>
<!-- Drawable&#45;&gt;SlideElement -->
<g id="edge7" class="edge">
<title>Drawable&#45;&gt;SlideElement</title>
<path fill="none" stroke="#000000" d="M515.7916,-144.5708C508.1669,-135.857 498.7932,-125.1441 490.376,-115.5244"/>
<polygon fill="#000000" stroke="#000000" points="492.809,-112.9899 483.5899,-107.7689 487.5409,-117.5994 492.809,-112.9899"/>
</g>
<!-- Slide -->
<g id="node9" class="node">
<title>Slide</title>
<ellipse fill="none" stroke="#000000" cx="594.0421" cy="-90" rx="34.394" ry="18"/>
<text text-anchor="middle" x="594.0421" y="-86.3" font-family="Times,serif" font-size="14.00" fill="#000000">Slide</text>
</g>
<!-- Drawable&#45;&gt;Slide -->
<g id="edge6" class="edge">
<title>Drawable&#45;&gt;Slide</title>
<path fill="none" stroke="#000000" d="M546.2926,-144.5708C554.2234,-135.5071 564.0465,-124.2807 572.7172,-114.3713"/>
<polygon fill="#000000" stroke="#000000" points="575.4147,-116.6035 579.3658,-106.7729 570.1467,-111.9939 575.4147,-116.6035"/>
</g>
<!-- Presentation -->
<g id="node5" class="node">
<title>Presentation</title>
<ellipse fill="none" stroke="#000000" cx="855.0421" cy="-162" rx="70.3881" ry="18"/>
<text text-anchor="middle" x="855.0421" y="-158.3" font-family="Times,serif" font-size="14.00" fill="#000000">Presentation</text>
</g>
<!-- HTMLPresentation -->
<g id="node6" class="node">
<title>HTMLPresentation</title>
<ellipse fill="none" stroke="#000000" cx="747.0421" cy="-90" rx="100.9827" ry="18"/>
<text text-anchor="middle" x="747.0421" y="-86.3" font-family="Times,serif" font-size="14.00" fill="#000000">HTMLPresentation</text>
</g>
<!-- Presentation&#45;&gt;HTMLPresentation -->
<g id="edge3" class="edge">
<title>Presentation&#45;&gt;HTMLPresentation</title>
<path fill="none" stroke="#000000" d="M829.7209,-145.1192C815.4123,-135.5801 797.3192,-123.5181 781.7093,-113.1115"/>
<polygon fill="#000000" stroke="#000000" points="783.5944,-110.1617 773.3324,-107.5269 779.7114,-115.9861 783.5944,-110.1617"/>
</g>
<!-- LatexPresentation -->
<g id="node8" class="node">
<title>LatexPresentation</title>
<ellipse fill="none" stroke="#000000" cx="963.0421" cy="-90" rx="96.6831" ry="18"/>
<text text-anchor="middle" x="963.0421" y="-86.3" font-family="Times,serif" font-size="14.00" fill="#000000">LatexPresentation</text>
</g>
<!-- Presentation&#45;&gt;LatexPresentation -->
<g id="edge5" class="edge">
<title>Presentation&#45;&gt;LatexPresentation</title>
<path fill="none" stroke="#000000" d="M880.3633,-145.1192C894.6719,-135.5801 912.765,-123.5181 928.3749,-113.1115"/>
<polygon fill="#000000" stroke="#000000" points="930.3728,-115.9861 936.7518,-107.5269 926.4898,-110.1617 930.3728,-115.9861"/>
</g>
</g>
</svg>
