<?xml version="1.0" encoding="UTF-8" standalone="no"?>
<!DOCTYPE svg PUBLIC "-//W3C//DTD SVG 1.1//EN"
 "http://www.w3.org/Graphics/SVG/1.1/DTD/svg11.dtd">
<!-- Generated by graphviz version 2.40.1 (0)
 -->
<!-- Title: %3 Pages: 1 -->
<svg width="814pt" height="264pt"
 viewBox="0.00 0.00 814.00 264.00" xmlns="http://www.w3.org/2000/svg" xmlns:xlink="http://www.w3.org/1999/xlink">
<g id="graph0" class="graph" transform="scale(1 1) rotate(0) translate(4 260)">
<title>%3</title>
<polygon fill="#ffffff" stroke="transparent" points="-4,4 -4,-260 810,-260 810,4 -4,4"/>
<!-- Drawable&#45;&gt;SlideElement -->
<g id="edge1" class="edge">
<title>Drawable&#45;&gt;SlideElement</title>
<path fill="none" stroke="#000000" d="M340.2164,-210.3272C330.8332,-189.5704 319.5,-164.5 319.5,-164.5"/>
<polygon fill="#000000" stroke="#000000" points="337.0342,-211.7846 344.3427,-219.4551 343.4127,-208.9011 337.0342,-211.7846"/>
</g>
<!-- Drawable&#45;&gt;Slide -->
<g id="edge2" class="edge">
<title>Drawable&#45;&gt;Slide</title>
<path fill="none" stroke="#000000" d="M373.6867,-211.7228C390.9556,-190.7124 412.5,-164.5 412.5,-164.5"/>
<polygon fill="#000000" stroke="#000000" points="370.9773,-209.5072 367.3315,-219.4551 376.3851,-213.952 370.9773,-209.5072"/>
</g>
<!-- SlideElement&#45;&gt;Array1D -->
<g id="edge3" class="edge">
<title>SlideElement&#45;&gt;Array1D</title>
<path fill="none" stroke="#000000" d="M261.1445,-154.4942C211.6164,-145.2609 139.0062,-129.9671 77.5,-110 57.7118,-103.576 34.5,-91.5 34.5,-91.5"/>
<polygon fill="#000000" stroke="#000000" points="260.5727,-157.9477 271.0411,-156.3158 261.8399,-151.0633 260.5727,-157.9477"/>
</g>
<!-- SlideElement&#45;&gt;Array2D -->
<g id="edge4" class="edge">
<title>SlideElement&#45;&gt;Array2D</title>
<path fill="none" stroke="#000000" d="M261.7956,-144.9659C232.76,-134.9123 197.1071,-122.2257 165.5,-110 145.7147,-102.347 121.5,-91.5 121.5,-91.5"/>
<polygon fill="#000000" stroke="#000000" points="260.7787,-148.3174 271.3734,-148.2699 263.0615,-141.7001 260.7787,-148.3174"/>
</g>
<!-- SlideElement&#45;&gt;Latex -->
<g id="edge5" class="edge">
<title>SlideElement&#45;&gt;Latex</title>
<path fill="none" stroke="#000000" d="M281.3899,-140.9234C246.9099,-119.5925 201.5,-91.5 201.5,-91.5"/>
<polygon fill="#000000" stroke="#000000" points="279.9859,-144.1704 290.3315,-146.4551 283.6686,-138.2175 279.9859,-144.1704"/>
</g>
<!-- SlideElement&#45;&gt;Graph_ -->
<g id="edge6" class="edge">
<title>SlideElement&#45;&gt;Graph_</title>
<path fill="none" stroke="#000000" d="M303.0948,-137.8871C290.2341,-117.0241 274.5,-91.5 274.5,-91.5"/>
<polygon fill="#000000" stroke="#000000" points="300.1495,-139.7791 308.3764,-146.4551 306.1083,-136.1058 300.1495,-139.7791"/>
</g>
<!-- SlideElement&#45;&gt;SourceCode -->
<g id="edge7" class="edge">
<title>SlideElement&#45;&gt;SourceCode</title>
<path fill="none" stroke="#000000" d="M336.2697,-137.8871C349.4163,-117.0241 365.5,-91.5 365.5,-91.5"/>
<polygon fill="#000000" stroke="#000000" points="333.2409,-136.1287 330.8708,-146.4551 339.1632,-139.8606 333.2409,-136.1287"/>
</g>
<!-- SlideElement&#45;&gt;Variable -->
<g id="edge8" class="edge">
<title>SlideElement&#45;&gt;Variable</title>
<path fill="none" stroke="#000000" d="M363.8263,-141.8719C405.818,-120.4356 462.5,-91.5 462.5,-91.5"/>
<polygon fill="#000000" stroke="#000000" points="362.1636,-138.791 354.8483,-146.4551 365.3463,-145.0256 362.1636,-138.791"/>
</g>
<!-- SlideElement&#45;&gt;Block -->
<g id="edge9" class="edge">
<title>SlideElement&#45;&gt;Block</title>
<path fill="none" stroke="#000000" d="M377.3171,-145.8517C435.2725,-129.0401 452.8925,-130.6119 505.5,-110 522.2493,-103.4375 541.5,-91.5 541.5,-91.5"/>
<polygon fill="#000000" stroke="#000000" points="376.2513,-142.517 367.6577,-148.7139 378.2401,-149.2286 376.2513,-142.517"/>
</g>
<!-- SlideElement&#45;&gt;Itemize -->
<g id="edge10" class="edge">
<title>SlideElement&#45;&gt;Itemize</title>
<path fill="none" stroke="#000000" d="M377.5392,-145.948C466.4731,-124.8559 494.1116,-136.7185 577.5,-110 595.7697,-104.1462 616.5,-91.5 616.5,-91.5"/>
<polygon fill="#000000" stroke="#000000" points="376.4492,-142.6114 367.5679,-148.3883 378.1133,-149.4107 376.4492,-142.6114"/>
</g>
<!-- Graph_&#45;&gt;UndirectedGraph -->
<g id="edge11" class="edge">
<title>Graph_&#45;&gt;UndirectedGraph</title>
<path fill="none" stroke="#000000" d="M274.5,-63.2012C274.5,-42.6751 274.5,-18.5 274.5,-18.5"/>
<polygon fill="#000000" stroke="#000000" points="271.0001,-63.455 274.5,-73.4551 278.0001,-63.4551 271.0001,-63.455"/>
</g>
<!-- Presentation&#45;&gt;HTMLPresentation -->
<g id="edge12" class="edge">
<title>Presentation&#45;&gt;HTMLPresentation</title>
<path fill="none" stroke="#000000" d="M641.6224,-212.2769C620.8109,-191.1763 594.5,-164.5 594.5,-164.5"/>
<polygon fill="#000000" stroke="#000000" points="639.1882,-214.7931 648.7022,-219.4551 644.172,-209.8776 639.1882,-214.7931"/>
</g>
<!-- Presentation&#45;&gt;LatexPresentation -->
<g id="edge13" class="edge">
<title>Presentation&#45;&gt;LatexPresentation</title>
<path fill="none" stroke="#000000" d="M692.7596,-212.2769C714.7274,-191.1763 742.5,-164.5 742.5,-164.5"/>
<polygon fill="#000000" stroke="#000000" points="690.074,-210.0035 685.2865,-219.4551 694.9231,-215.0519 690.074,-210.0035"/>
</g>
<!-- Drawable -->
<g id="node1" class="node">
<title>Drawable</title>
<path fill="#ffffff" stroke="#000000" d="M326.5,-219.5C326.5,-219.5 378.5,-219.5 378.5,-219.5 384.5,-219.5 390.5,-225.5 390.5,-231.5 390.5,-231.5 390.5,-243.5 390.5,-243.5 390.5,-249.5 384.5,-255.5 378.5,-255.5 378.5,-255.5 326.5,-255.5 326.5,-255.5 320.5,-255.5 314.5,-249.5 314.5,-243.5 314.5,-243.5 314.5,-231.5 314.5,-231.5 314.5,-225.5 320.5,-219.5 326.5,-219.5"/>
<text text-anchor="middle" x="352.5" y="-234.4" font-family="Times,serif" font-size="12.00" fill="#000000">Drawable</text>
</g>
<!-- SlideElement -->
<g id="node2" class="node">
<title>SlideElement</title>
<path fill="#ffffff" stroke="#000000" d="M283.5,-146.5C283.5,-146.5 355.5,-146.5 355.5,-146.5 361.5,-146.5 367.5,-152.5 367.5,-158.5 367.5,-158.5 367.5,-170.5 367.5,-170.5 367.5,-176.5 361.5,-182.5 355.5,-182.5 355.5,-182.5 283.5,-182.5 283.5,-182.5 277.5,-182.5 271.5,-176.5 271.5,-170.5 271.5,-170.5 271.5,-158.5 271.5,-158.5 271.5,-152.5 277.5,-146.5 283.5,-146.5"/>
<text text-anchor="middle" x="319.5" y="-161.4" font-family="Times,serif" font-size="12.00" fill="#000000">SlideElement</text>
</g>
<!-- Slide -->
<g id="node3" class="node">
<title>Slide</title>
<path fill="#ffffff" stroke="#000000" d="M397.5,-146.5C397.5,-146.5 427.5,-146.5 427.5,-146.5 433.5,-146.5 439.5,-152.5 439.5,-158.5 439.5,-158.5 439.5,-170.5 439.5,-170.5 439.5,-176.5 433.5,-182.5 427.5,-182.5 427.5,-182.5 397.5,-182.5 397.5,-182.5 391.5,-182.5 385.5,-176.5 385.5,-170.5 385.5,-170.5 385.5,-158.5 385.5,-158.5 385.5,-152.5 391.5,-146.5 397.5,-146.5"/>
<text text-anchor="middle" x="412.5" y="-161.4" font-family="Times,serif" font-size="12.00" fill="#000000">Slide</text>
</g>
<!-- Array1D -->
<g id="node4" class="node">
<title>Array1D</title>
<path fill="#ffffff" stroke="#000000" d="M12,-73.5C12,-73.5 57,-73.5 57,-73.5 63,-73.5 69,-79.5 69,-85.5 69,-85.5 69,-97.5 69,-97.5 69,-103.5 63,-109.5 57,-109.5 57,-109.5 12,-109.5 12,-109.5 6,-109.5 0,-103.5 0,-97.5 0,-97.5 0,-85.5 0,-85.5 0,-79.5 6,-73.5 12,-73.5"/>
<text text-anchor="middle" x="34.5" y="-88.4" font-family="Times,serif" font-size="12.00" fill="#000000">Array1D</text>
</g>
<!-- Array2D -->
<g id="node5" class="node">
<title>Array2D</title>
<path fill="#ffffff" stroke="#000000" d="M99,-73.5C99,-73.5 144,-73.5 144,-73.5 150,-73.5 156,-79.5 156,-85.5 156,-85.5 156,-97.5 156,-97.5 156,-103.5 150,-109.5 144,-109.5 144,-109.5 99,-109.5 99,-109.5 93,-109.5 87,-103.5 87,-97.5 87,-97.5 87,-85.5 87,-85.5 87,-79.5 93,-73.5 99,-73.5"/>
<text text-anchor="middle" x="121.5" y="-88.4" font-family="Times,serif" font-size="12.00" fill="#000000">Array2D</text>
</g>
<!-- Latex -->
<g id="node6" class="node">
<title>Latex</title>
<path fill="#ffffff" stroke="#000000" d="M186.5,-73.5C186.5,-73.5 216.5,-73.5 216.5,-73.5 222.5,-73.5 228.5,-79.5 228.5,-85.5 228.5,-85.5 228.5,-97.5 228.5,-97.5 228.5,-103.5 222.5,-109.5 216.5,-109.5 216.5,-109.5 186.5,-109.5 186.5,-109.5 180.5,-109.5 174.5,-103.5 174.5,-97.5 174.5,-97.5 174.5,-85.5 174.5,-85.5 174.5,-79.5 180.5,-73.5 186.5,-73.5"/>
<text text-anchor="middle" x="201.5" y="-88.4" font-family="Times,serif" font-size="12.00" fill="#000000">Latex</text>
</g>
<!-- Graph_ -->
<g id="node7" class="node">
<title>Graph_</title>
<path fill="#ffffff" stroke="#000000" d="M259,-73.5C259,-73.5 290,-73.5 290,-73.5 296,-73.5 302,-79.5 302,-85.5 302,-85.5 302,-97.5 302,-97.5 302,-103.5 296,-109.5 290,-109.5 290,-109.5 259,-109.5 259,-109.5 253,-109.5 247,-103.5 247,-97.5 247,-97.5 247,-85.5 247,-85.5 247,-79.5 253,-73.5 259,-73.5"/>
<text text-anchor="middle" x="274.5" y="-88.4" font-family="Times,serif" font-size="12.00" fill="#000000">Graph</text>
</g>
<!-- SourceCode -->
<g id="node8" class="node">
<title>SourceCode</title>
<path fill="#ffffff" stroke="#000000" d="M332.5,-73.5C332.5,-73.5 398.5,-73.5 398.5,-73.5 404.5,-73.5 410.5,-79.5 410.5,-85.5 410.5,-85.5 410.5,-97.5 410.5,-97.5 410.5,-103.5 404.5,-109.5 398.5,-109.5 398.5,-109.5 332.5,-109.5 332.5,-109.5 326.5,-109.5 320.5,-103.5 320.5,-97.5 320.5,-97.5 320.5,-85.5 320.5,-85.5 320.5,-79.5 326.5,-73.5 332.5,-73.5"/>
<text text-anchor="middle" x="365.5" y="-88.4" font-family="Times,serif" font-size="12.00" fill="#000000">SourceCode</text>
</g>
<!-- Variable -->
<g id="node9" class="node">
<title>Variable</title>
<path fill="#ffffff" stroke="#000000" d="M440.5,-73.5C440.5,-73.5 484.5,-73.5 484.5,-73.5 490.5,-73.5 496.5,-79.5 496.5,-85.5 496.5,-85.5 496.5,-97.5 496.5,-97.5 496.5,-103.5 490.5,-109.5 484.5,-109.5 484.5,-109.5 440.5,-109.5 440.5,-109.5 434.5,-109.5 428.5,-103.5 428.5,-97.5 428.5,-97.5 428.5,-85.5 428.5,-85.5 428.5,-79.5 434.5,-73.5 440.5,-73.5"/>
<text text-anchor="middle" x="462.5" y="-88.4" font-family="Times,serif" font-size="12.00" fill="#000000">Variable</text>
</g>
<!-- Block -->
<g id="node10" class="node">
<title>Block</title>
<path fill="#ffffff" stroke="#000000" d="M526.5,-73.5C526.5,-73.5 556.5,-73.5 556.5,-73.5 562.5,-73.5 568.5,-79.5 568.5,-85.5 568.5,-85.5 568.5,-97.5 568.5,-97.5 568.5,-103.5 562.5,-109.5 556.5,-109.5 556.5,-109.5 526.5,-109.5 526.5,-109.5 520.5,-109.5 514.5,-103.5 514.5,-97.5 514.5,-97.5 514.5,-85.5 514.5,-85.5 514.5,-79.5 520.5,-73.5 526.5,-73.5"/>
<text text-anchor="middle" x="541.5" y="-88.4" font-family="Times,serif" font-size="12.00" fill="#000000">Block</text>
</g>
<!-- Itemize -->
<g id="node11" class="node">
<title>Itemize</title>
<path fill="#ffffff" stroke="#000000" d="M598.5,-73.5C598.5,-73.5 634.5,-73.5 634.5,-73.5 640.5,-73.5 646.5,-79.5 646.5,-85.5 646.5,-85.5 646.5,-97.5 646.5,-97.5 646.5,-103.5 640.5,-109.5 634.5,-109.5 634.5,-109.5 598.5,-109.5 598.5,-109.5 592.5,-109.5 586.5,-103.5 586.5,-97.5 586.5,-97.5 586.5,-85.5 586.5,-85.5 586.5,-79.5 592.5,-73.5 598.5,-73.5"/>
<text text-anchor="middle" x="616.5" y="-88.4" font-family="Times,serif" font-size="12.00" fill="#000000">Itemize</text>
</g>
<!-- SlideBuilder -->
<g id="node12" class="node">
<title>SlideBuilder</title>
<path fill="#ffffff" stroke="#000000" d="M438,-219.5C438,-219.5 505,-219.5 505,-219.5 511,-219.5 517,-225.5 517,-231.5 517,-231.5 517,-243.5 517,-243.5 517,-249.5 511,-255.5 505,-255.5 505,-255.5 438,-255.5 438,-255.5 432,-255.5 426,-249.5 426,-243.5 426,-243.5 426,-231.5 426,-231.5 426,-225.5 432,-219.5 438,-219.5"/>
<text text-anchor="middle" x="471.5" y="-234.4" font-family="Times,serif" font-size="12.00" fill="#000000">SlideBuilder</text>
</g>
<!-- Color -->
<g id="node13" class="node">
<title>Color</title>
<path fill="#ffffff" stroke="#000000" d="M555.5,-219.5C555.5,-219.5 585.5,-219.5 585.5,-219.5 591.5,-219.5 597.5,-225.5 597.5,-231.5 597.5,-231.5 597.5,-243.5 597.5,-243.5 597.5,-249.5 591.5,-255.5 585.5,-255.5 585.5,-255.5 555.5,-255.5 555.5,-255.5 549.5,-255.5 543.5,-249.5 543.5,-243.5 543.5,-243.5 543.5,-231.5 543.5,-231.5 543.5,-225.5 549.5,-219.5 555.5,-219.5"/>
<text text-anchor="middle" x="570.5" y="-234.4" font-family="Times,serif" font-size="12.00" fill="#000000">Color</text>
</g>
<!-- UndirectedGraph -->
<g id="node14" class="node">
<title>UndirectedGraph</title>
<path fill="#ffffff" stroke="#000000" d="M225.5,-.5C225.5,-.5 323.5,-.5 323.5,-.5 329.5,-.5 335.5,-6.5 335.5,-12.5 335.5,-12.5 335.5,-24.5 335.5,-24.5 335.5,-30.5 329.5,-36.5 323.5,-36.5 323.5,-36.5 225.5,-36.5 225.5,-36.5 219.5,-36.5 213.5,-30.5 213.5,-24.5 213.5,-24.5 213.5,-12.5 213.5,-12.5 213.5,-6.5 219.5,-.5 225.5,-.5"/>
<text text-anchor="middle" x="274.5" y="-15.4" font-family="Times,serif" font-size="12.00" fill="#000000">UndirectedGraph</text>
</g>
<!-- Presentation -->
<g id="node15" class="node">
<title>Presentation</title>
<path fill="#ffffff" stroke="#000000" d="M632,-219.5C632,-219.5 701,-219.5 701,-219.5 707,-219.5 713,-225.5 713,-231.5 713,-231.5 713,-243.5 713,-243.5 713,-249.5 707,-255.5 701,-255.5 701,-255.5 632,-255.5 632,-255.5 626,-255.5 620,-249.5 620,-243.5 620,-243.5 620,-231.5 620,-231.5 620,-225.5 626,-219.5 632,-219.5"/>
<text text-anchor="middle" x="666.5" y="-234.4" font-family="Times,serif" font-size="12.00" fill="#000000">Presentation</text>
</g>
<!-- HTMLPresentation -->
<g id="node16" class="node">
<title>HTMLPresentation</title>
<path fill="#ffffff" stroke="#000000" d="M540.5,-146.5C540.5,-146.5 648.5,-146.5 648.5,-146.5 654.5,-146.5 660.5,-152.5 660.5,-158.5 660.5,-158.5 660.5,-170.5 660.5,-170.5 660.5,-176.5 654.5,-182.5 648.5,-182.5 648.5,-182.5 540.5,-182.5 540.5,-182.5 534.5,-182.5 528.5,-176.5 528.5,-170.5 528.5,-170.5 528.5,-158.5 528.5,-158.5 528.5,-152.5 534.5,-146.5 540.5,-146.5"/>
<text text-anchor="middle" x="594.5" y="-161.4" font-family="Times,serif" font-size="12.00" fill="#000000">HTMLPresentation</text>
</g>
<!-- LatexPresentation -->
<g id="node17" class="node">
<title>LatexPresentation</title>
<path fill="#ffffff" stroke="#000000" d="M691,-146.5C691,-146.5 794,-146.5 794,-146.5 800,-146.5 806,-152.5 806,-158.5 806,-158.5 806,-170.5 806,-170.5 806,-176.5 800,-182.5 794,-182.5 794,-182.5 691,-182.5 691,-182.5 685,-182.5 679,-176.5 679,-170.5 679,-170.5 679,-158.5 679,-158.5 679,-152.5 685,-146.5 691,-146.5"/>
<text text-anchor="middle" x="742.5" y="-161.4" font-family="Times,serif" font-size="12.00" fill="#000000">LatexPresentation</text>
</g>
</g>
</svg>
